<svg width="82" height="82" fill="none" xmlns="http://www.w3.org/2000/svg"><path d="M0 71.427C0 77.267 4.734 82 10.573 82h60.854C77.267 82 82 77.266 82 71.427V10.573C82 4.733 77.266 0 71.427 0H10.573C4.733 0 0 4.734 0 10.573v60.854z" fill="#563D7C"/><path d="M34.004 36.272V24.659h10.221c.974 0 1.913.081 2.816.244.904.162 1.704.451 2.4.869a4.635 4.635 0 011.668 1.738c.417.742.626 1.692.626 2.85 0 2.087-.626 3.594-1.877 4.52-1.252.928-2.851 1.392-4.798 1.392H34.004zM23.087 16.176v49.648h24.059c2.225 0 4.392-.278 6.502-.834 2.109-.557 3.986-1.414 5.632-2.573 1.645-1.159 2.955-2.654 3.929-4.485.973-1.831 1.46-3.998 1.46-6.502 0-3.106-.753-5.76-2.26-7.961-1.507-2.203-3.79-3.744-6.85-4.625 2.226-1.066 3.906-2.433 5.042-4.102 1.136-1.67 1.704-3.755 1.704-6.258 0-2.318-.383-4.265-1.148-5.841-.765-1.576-1.842-2.84-3.233-3.79-1.39-.95-3.06-1.634-5.007-2.051-1.947-.418-4.102-.626-6.467-.626H23.086zM34.004 57.34V43.71h11.89c2.364 0 4.265.545 5.702 1.635 1.437 1.09 2.156 2.909 2.156 5.458 0 1.299-.22 2.365-.66 3.2-.441.834-1.032 1.494-1.774 1.98-.742.488-1.6.835-2.573 1.044-.974.208-1.993.313-3.06.313h-11.68z" fill="#fff"/></svg>