<svg width="100" height="100" fill="none" xmlns="http://www.w3.org/2000/svg"><path d="M18.444 85.003L11.425 6.25h77.15l-7.028 78.74-31.594 8.76-31.51-8.747z" fill="#1572B6"/><path d="M50 87.056l25.531-7.078 6.006-67.287H50v74.365z" fill="#33A9DC"/><path d="M50 41.222h12.781l.882-9.89H50v-9.66h24.219l-.231 2.59-2.372 26.62H50v-9.66z" fill="#fff"/><path d="M50.06 66.306l-.044.013-10.757-2.906-.687-7.703h-9.697l1.353 15.165 19.785 5.494.046-.013v-10.05z" fill="#EBEBEB"/><path d="M61.96 50.472l-1.163 12.934-10.772 2.907v10.05l19.8-5.488.147-1.631 1.678-18.772h-9.69z" fill="#fff"/><path d="M50.034 21.672v9.66h-23.33l-.195-2.172-.44-4.897-.232-2.591h24.197zM50 41.222v9.66H39.378l-.194-2.173-.437-4.897-.231-2.59H50z" fill="#EBEBEB"/></svg>