<svg width="100" height="100" fill="none" xmlns="http://www.w3.org/2000/svg"><path fill-rule="evenodd" clip-rule="evenodd" d="M50 0C22.375 0 0 22.375 0 50c0 22.125 14.313 40.813 34.188 47.438 2.5.437 3.437-1.063 3.437-2.376 0-1.187-.063-5.124-.063-9.312C25 88.063 21.75 82.687 20.75 79.875c-.563-1.438-3-5.875-5.125-7.063-1.75-.937-4.25-3.25-.063-3.312 3.938-.063 6.75 3.625 7.688 5.125 4.5 7.563 11.688 5.438 14.563 4.125.437-3.25 1.75-5.438 3.187-6.688-11.125-1.25-22.75-5.562-22.75-24.687 0-5.438 1.938-9.938 5.125-13.438-.5-1.25-2.25-6.374.5-13.25 0 0 4.188-1.312 13.75 5.125 4-1.125 8.25-1.687 12.5-1.687s8.5.563 12.5 1.688c9.563-6.5 13.75-5.125 13.75-5.125 2.75 6.875 1 12 .5 13.25C80.063 37.438 82 41.874 82 47.374c0 19.188-11.688 23.438-22.813 24.688 1.813 1.562 3.376 4.562 3.376 9.25 0 6.687-.063 12.062-.063 13.75 0 1.312.938 2.874 3.438 2.374A50.084 50.084 0 00100 50c0-27.625-22.375-50-50-50z" fill="#fff"/></svg>