<svg width="45" height="100" fill="none" xmlns="http://www.w3.org/2000/svg"><g clip-path="url(#clip0_305_2)"><path d="M34.67 96.952l.954-15.977 2.633-4.52s-5.993 2.466-16.028 2.466c-10.035 0-15.938-2.42-15.938-2.42l2.952 4.93 1.044 15.521c0 1.664 5.458 3.013 12.191 3.013 6.734 0 12.192-1.349 12.192-3.013zm-3.008-74.61l2.002-7.955L44.749 2.66 41.828.158 30.09 12.65l-2.324 9.504c-1.75-.059-3.5-.088-5.25-.088-12.361 0-22.382 1.417-22.382 3.163 0 1.747 10.02 3.163 22.382 3.163 12.36 0 22.38-1.416 22.38-3.163 0-1.286-5.434-2.393-13.235-2.887z" fill="#D34A47"/><path d="M30.497 26.797s-.433.097-1.709.103c-1.275.005-2.181-.008-2.542-.339-.097-.089-.15-.265-.15-.384.002-.227.162-.36.366-.444l.193.304c-.084.03-.132.064-.132.1 0 .173 1.304.29 2.303.278.998-.012 2.204-.095 2.205-.265 0-.051-.09-.1-.25-.138l.193-.302c.258.08.484.236.484.506-.003.46-.584.53-.96.58z" fill="#fff"/><path d="M44.728 2.683c.278-.324-.145-1.152-.945-1.85-.801-.696-1.676-1-1.955-.675-.28.323.144 1.151.945 1.848.8.697 1.676 1 1.955.677zM34.137 57.927c-.263-2.542 5.53-6.222 4.043-6.34-3.2.184-4.793 3.77-6.403 7.526-.59 1.376-2.608 7.246-3.932 6.523-1.324-.722 1.716-5.549 2.568-8.415-.983.725-4.589 3.54-5.518.903-1.494 1.276-4.686 1.967-4.326-1.384-.794 1.416-2.578 3.391-4.719 2.57-2.811-1.078 1.63-10.081 2.734-9.627 1.104.454-.223 2.505-.57 3.302-.765 1.752-1.648 3.956-1.058 4.407 1.01.773 3.76-2.924 3.822-3.005.514-.683 1.98-5.153 3.16-4.64 1.182.514-2.945 6.415-1.402 7.587.311.236 1.584-.146 2.36-.989.5-.545.328-1.752 1.999-5.758 1.67-4.005 3.16-8.994 4.305-8.614 1.146.38.202 2.94-.21 3.895-1.928 4.48-5.264 11.88-3.69 11.32 1.572-.56 2.391-.593 3.932-2.405 1.54-1.813 1.47-4.797 2.496-4.734 1.027.063.855 1.02.605 1.75 1.011-1.163 4.79-3.612 5.703-1.187 1.08 2.871-5.407 7.018-3.79 6.806 1.578-.206 4.133-1.833 5.224-3.312l3.003-27.142s-3.022 2.514-22.247 2.514S.292 27.016.292 27.016L2.848 51.79c1.357-3.877 4.58-11.72 9.66-11.457 2.31.12 5.395 4.593 2.752 4.744-1.118.064-1.232-2.232-2.556-2.57-.956-.243-2.286.538-3.146 1.384-1.715 1.688-5.403 8.345-4.916 11.664.621 4.23 5.808-1.47 6.686-3.163.618-1.193 1.035-4.726 2.387-4.355 1.352.37-.118 4.017-1.098 7.24-1.1 3.62-1.68 7.438-3.059 6.999-1.38-.44.868-5.112.786-5.93-1.297 1.202-3.686 4.248-6.743 2.74L5.19 74.471s4.22 3.352 16.933 3.352c12.712 0 17.089-3.3 17.089-3.3l1.971-17.819c-1.613 1.58-6.718 4.384-7.045 1.223z" fill="#D34A47"/></g><defs><clipPath id="clip0_305_2"><path fill="#fff" d="M0 0h45v100H0z"/></clipPath></defs></svg>