<svg width="100" height="100" fill="none" xmlns="http://www.w3.org/2000/svg"><path d="M18.444 85.003L11.422 6.25h77.156l-7.031 78.74-31.594 8.76-31.51-8.747z" fill="#E44F26"/><path d="M50 87.056l25.531-7.078 6.006-67.287H50v74.365z" fill="#F1662A"/><path d="M50 41.897H37.219l-.882-9.89H50v-9.66H25.781l.232 2.593 2.371 26.616H50v-9.66zm0 25.084l-.044.013L39.2 64.09l-.688-7.704h-9.696l1.353 15.163 19.787 5.494.044-.013V66.98z" fill="#EBEBEB"/><path d="M49.966 41.897v9.66h11.893l-1.118 12.527-10.775 2.907v10.05l19.803-5.491.143-1.631 2.27-25.428.237-2.594H49.966zm0-19.55v9.66h23.33l.195-2.17.44-4.897.231-2.593H49.966z" fill="#fff"/></svg>