<svg width="100" height="100" fill="none" xmlns="http://www.w3.org/2000/svg"><path d="M58.669 61.563a11.648 11.648 0 0010.55 6.493c4.431 0 7.262-2.215 7.262-5.275 0-3.665-2.91-4.965-7.784-7.1l-2.675-1.147c-7.716-3.287-12.844-7.406-12.844-16.112 0-8.022 6.113-14.125 15.663-14.125a15.806 15.806 0 0115.222 8.578l-8.329 5.347a7.273 7.273 0 00-6.875-4.584 4.652 4.652 0 00-5.118 4.584c0 3.21 1.987 4.506 6.562 6.494l2.675 1.143c9.088 3.897 14.216 7.87 14.216 16.8 0 9.628-7.563 14.903-17.722 14.903a20.546 20.546 0 01-19.488-10.937l8.685-5.063zm-37.775.937c1.681 2.981 3.21 5.5 6.875 5.5 3.512 0 5.731-1.375 5.731-6.719v-36.36h10.694v36.51c0 11.072-6.494 16.113-15.969 16.113a16.6 16.6 0 01-16.038-9.77l8.707-5.274z" fill="#F5DE19"/></svg>