<svg width="100" height="75" fill="none" xmlns="http://www.w3.org/2000/svg"><path d="M86.047 43.17c-3.479.017-6.502.855-9.034 2.094-.93-1.84-1.858-3.479-2.022-4.681-.182-1.402-.4-2.259-.182-3.935.218-1.675 1.202-4.062 1.184-4.244-.018-.182-.22-1.038-2.223-1.056-2.003-.018-3.734.383-3.934.91a22.07 22.07 0 00-.838 2.97c-.346 1.821-4.007 8.323-6.102 11.73-.674-1.33-1.257-2.495-1.384-3.424-.182-1.403-.401-2.259-.182-3.935.218-1.676 1.202-4.061 1.184-4.244-.019-.182-.219-1.038-2.223-1.056-2.003-.018-3.734.382-3.934.91-.2.529-.42 1.767-.838 2.97-.419 1.202-5.282 12.058-6.557 14.863a83.992 83.992 0 01-1.621 3.37s-.019.054-.073.145c-.178.349-.36.695-.547 1.039v.018c-.273.492-.564.947-.71.947-.11 0-.31-1.311.036-3.097.729-3.77 2.46-9.635 2.441-9.835 0-.11.328-1.13-1.129-1.658-1.421-.528-1.93.346-2.059.346-.127 0-.218.31-.218.31s1.585-6.594-3.024-6.594c-2.877 0-6.849 3.151-8.816 5.992a2565.09 2565.09 0 00-6.703 3.662c-1.074.6-2.185 1.202-3.224 1.767-.073-.073-.145-.165-.219-.237C17.523 43.26 7.213 39.053 7.65 31.057c.164-2.915 1.166-10.565 19.8-19.855 15.337-7.559 27.541-5.465 29.654-.82 3.023 6.63-6.54 18.944-22.386 20.729-6.048.674-9.217-1.658-10.018-2.532-.838-.91-.966-.965-1.276-.783-.51.274-.182 1.093 0 1.567.474 1.238 2.423 3.424 5.72 4.499 2.914.947 10 1.475 18.58-1.84 9.598-3.716 17.103-14.044 14.9-22.696C60.418.546 45.846-2.35 32.057 2.55 23.862 5.465 14.973 10.055 8.58 16.03.984 23.132-.219 29.307.273 31.893 2.04 41.075 14.7 47.05 19.763 51.475c-.255.146-.492.274-.692.383-2.532 1.257-12.186 6.302-14.59 11.64-2.732 6.047.437 10.382 2.532 10.965 6.503 1.803 13.187-1.44 16.776-6.795 3.588-5.355 3.15-12.313 1.493-15.5a.357.357 0 00-.073-.11c.656-.382 1.33-.783 1.986-1.165a96.733 96.733 0 013.661-2.059c-.62 1.694-1.075 3.716-1.293 6.63-.273 3.425 1.129 7.87 2.969 9.618.82.765 1.785.783 2.404.783 2.15 0 3.115-1.785 4.19-3.898 1.311-2.586 2.495-5.592 2.495-5.592S40.146 64.5 44.153 64.5c1.457 0 2.933-1.894 3.588-2.86v.018s.037-.054.11-.182l.236-.382v-.036c.583-1.02 1.895-3.334 3.844-7.177 2.514-4.955 4.936-11.148 4.936-11.148s.219 1.512.966 4.026c.437 1.475 1.347 3.096 2.076 4.663-.583.82-.947 1.275-.947 1.275l.018.018c-.474.62-.983 1.293-1.548 1.95-1.986 2.367-4.353 5.081-4.682 5.864-.382.929-.291 1.603.438 2.15.528.4 1.475.455 2.44.4 1.786-.127 3.042-.564 3.661-.837.966-.346 2.095-.875 3.152-1.658 1.949-1.44 3.132-3.497 3.023-6.211-.054-1.494-.546-2.988-1.147-4.39.182-.255.346-.51.528-.765 3.079-4.5 5.465-9.436 5.465-9.436s.219 1.512.965 4.026c.364 1.275 1.111 2.66 1.767 4.007-2.896 2.35-4.681 5.082-5.319 6.867-1.147 3.316-.255 4.809 1.44 5.155.764.164 1.857-.2 2.659-.547a12.101 12.101 0 003.37-1.73c1.949-1.439 3.824-3.443 3.715-6.156-.055-1.239-.382-2.46-.838-3.644 2.46-1.02 5.629-1.584 9.672-1.11 8.67 1.02 10.383 6.43 10.055 8.706-.328 2.277-2.15 3.516-2.75 3.898-.602.383-.802.51-.747.783.072.401.364.383.874.31.71-.127 4.554-1.84 4.718-6.03.273-5.354-4.827-11.201-13.844-11.147zM19.162 65.72c-2.878 3.132-6.885 4.316-8.615 3.315-1.858-1.075-1.13-5.702 2.404-9.017 2.149-2.022 4.918-3.898 6.758-5.045.418-.255 1.038-.62 1.785-1.075.127-.073.2-.11.2-.11l.437-.273c1.293 4.736.055 8.908-2.969 12.204zM40.11 51.474c-1.002 2.441-3.096 8.689-4.371 8.343-1.093-.291-1.767-5.027-.219-9.709.783-2.35 2.44-5.155 3.406-6.247 1.567-1.75 3.297-2.332 3.716-1.621.529.928-1.912 7.704-2.532 9.234zm17.286 8.27c-.419.219-.82.364-1.002.255-.127-.073.183-.364.183-.364s2.167-2.332 3.023-3.388c.492-.62 1.075-1.348 1.694-2.168v.237c0 2.787-2.696 4.663-3.898 5.428zm13.334-3.042c-.31-.219-.255-.947.783-3.224.4-.893 1.347-2.386 2.969-3.825.182.583.31 1.148.291 1.676-.018 3.515-2.531 4.827-4.043 5.373z" fill="#CD6799"/></svg>