<svg width="100" height="100" fill="none" xmlns="http://www.w3.org/2000/svg"><path d="M78.957 47.831c0-5.3-1.907-8.969-3.538-11.825l-.5-.812c-1.981-3.188-3.712-5.988-3.712-9.25 0-3.938 2.987-7.613 7.2-7.613.124 0 .243.013.362.019l.194.019A42.737 42.737 0 0050 7.106a42.843 42.843 0 00-35.837 19.331c1 .032 1.956.057 2.762.057 4.482 0 11.425-.544 11.425-.544 2.313-.138 2.588 3.256.275 3.531 0 0-2.319.275-4.906.406L39.344 76.35l9.375-28.163-6.688-18.306a81.885 81.885 0 01-4.493-.406c-2.313-.138-2.038-3.675.269-3.538 0 0 7.087.544 11.3.544 4.487 0 11.437-.544 11.437-.544 2.313-.137 2.581 3.263.269 3.538 0 0-2.325.269-4.907.406l15.5 46.106 4.275-14.293.338-1.082c1.688-5.375 2.931-9.343 2.931-12.787l.007.006zM7.107 50a42.9 42.9 0 0024.175 38.6l-20.47-56.063A42.731 42.731 0 007.107 50z" fill="#00749C"/><path d="M37.881 91.144L50.756 53.75l13.181 36.125c.088.206.188.4.307.588a42.837 42.837 0 01-26.363.68zm49.75-61.725c.188 1.369.294 2.831.294 4.412 0 4.35-.813 9.244-3.263 15.363l-13.1 37.875a42.875 42.875 0 0016.075-57.65h-.006z" fill="#00749C"/><path fill-rule="evenodd" clip-rule="evenodd" d="M0 50C0 22.431 22.431 0 50 0c27.563 0 50 22.431 50 50s-22.438 50-50 50C22.431 100 0 77.569 0 50zm2.294 0c0 26.306 21.4 47.706 47.706 47.706 26.3 0 47.7-21.4 47.7-47.706C97.7 23.687 76.3 2.294 50 2.294 23.687 2.294 2.294 23.687 2.294 50z" fill="#00749C"/></svg>